<svg xmlns="http://www.w3.org/2000/svg" xmlns:xlink="http://www.w3.org/1999/xlink" width="124" height="124" viewBox="0 0 124 124">
  <defs>
    <clipPath id="clip-path">
      <rect id="Rectangle_4213" data-name="Rectangle 4213" width="124" height="124" transform="translate(278 2743)" fill="#fff"/>
    </clipPath>
  </defs>
  <g id="Groupe_de_masques_103" data-name="Groupe de masques 103" transform="translate(-278 -2743)" clip-path="url(#clip-path)" style="mix-blend-mode: multiply;isolation: isolate">
    <path id="Union_38" data-name="Union 38" d="M-1595.367-83.63a50,50,0,0,1-15.943-10.748,49.993,49.993,0,0,1-10.749-15.943A49.849,49.849,0,0,1-1626-129.844a49.845,49.845,0,0,1,3.942-19.523,49.973,49.973,0,0,1,10.749-15.943,49.992,49.992,0,0,1,15.943-10.749A49.849,49.849,0,0,1-1575.843-180a49.847,49.847,0,0,1,19.523,3.942,49.983,49.983,0,0,1,15.943,10.749,49.971,49.971,0,0,1,10.749,15.943,49.843,49.843,0,0,1,3.942,19.523,49.847,49.847,0,0,1-3.942,19.524,49.991,49.991,0,0,1-10.749,15.943,50,50,0,0,1-15.943,10.748,49.831,49.831,0,0,1-19.523,3.942A49.833,49.833,0,0,1-1595.367-83.63Zm-25.561-46.214a44.775,44.775,0,0,0,3.544,17.545,44.963,44.963,0,0,0,9.664,14.332,44.967,44.967,0,0,0,14.332,9.664,44.771,44.771,0,0,0,17.545,3.543,44.916,44.916,0,0,0,15.651-2.791,44.917,44.917,0,0,0,13.265-7.7,45.194,45.194,0,0,0,9.882-11.616,44.734,44.734,0,0,0,5.315-13.613l-10.89-2.98a8.623,8.623,0,0,1-5.947-5.623l-3.359-10.059a8.679,8.679,0,0,1,4.642-10.654l9.449-4.292a45.374,45.374,0,0,0-15.524-14.836,44.813,44.813,0,0,0-10.651-4.43,45.193,45.193,0,0,0-11.833-1.569h-.5l2.455,4.971a8.643,8.643,0,0,1-1.175,9.525l-4.026,4.7a2.1,2.1,0,0,0-.015,2.69l3.437,4.128a6.137,6.137,0,0,1,1.43,3.641,6.152,6.152,0,0,1-1.041,3.777,6.188,6.188,0,0,1-5.154,2.769,6.152,6.152,0,0,1-1.967-.323l-4.657-1.559a2.222,2.222,0,0,0-.736-.124,2.226,2.226,0,0,0-1.013.243l0,0a2.326,2.326,0,0,0-1.164,1.349,2.279,2.279,0,0,0,.126,1.762l.137.273a2.624,2.624,0,0,0,1.166,1.166l8.813,4.4a6.627,6.627,0,0,0,2.991.7h9.37a11.8,11.8,0,0,1,4.5.886,11.749,11.749,0,0,1,3.79,2.492l.007.006.748.75a11.687,11.687,0,0,1,2.548,3.809,11.705,11.705,0,0,1,.895,4.5v1.594a11.8,11.8,0,0,1-5.917,10.2l-1.726,1a8.877,8.877,0,0,0-4.247,5.763l-.941,4.245a8.475,8.475,0,0,1-2.972,4.79,8.535,8.535,0,0,1-5.321,1.869,8.518,8.518,0,0,1-8.508-8.508v-7.489a3.019,3.019,0,0,0-1.669-2.694,8.037,8.037,0,0,1-3.267-2.978,8.089,8.089,0,0,1-1.208-4.255v-2.17a6.5,6.5,0,0,0-1.274-3.879,6.491,6.491,0,0,0-3.322-2.367l-13.212-4.128a14.625,14.625,0,0,1-5.182-2.856,14.845,14.845,0,0,1-3.65-4.658l-2.494-4.974A45.288,45.288,0,0,0-1620.928-129.844Zm17.453-35.624a45.261,45.261,0,0,0-14.131,18.625l4.829,9.659a9.779,9.779,0,0,0,5.815,4.946l13.232,4.128a11.527,11.527,0,0,1,5.9,4.208,11.551,11.551,0,0,1,2.255,6.885v2.228a3.02,3.02,0,0,0,1.67,2.694,8.028,8.028,0,0,1,3.268,2.978,8.089,8.089,0,0,1,1.208,4.255v7.489A3.439,3.439,0,0,0-1576-93.938a3.44,3.44,0,0,0,2.146-.754,3.415,3.415,0,0,0,1.2-1.933l.942-4.248a13.914,13.914,0,0,1,6.683-9.063l1.746-1a6.677,6.677,0,0,0,3.375-5.8v-1.594a6.729,6.729,0,0,0-1.954-4.727l-.749-.749a6.727,6.727,0,0,0-4.727-1.954h-9.37a11.8,11.8,0,0,1-5.248-1.238l-8.813-4.4a7.7,7.7,0,0,1-3.441-3.438l-.138-.274a7.419,7.419,0,0,1,3.308-9.925l0,0a7.525,7.525,0,0,1,3.308-.775,7.34,7.34,0,0,1,2.328.378l4.652,1.557a1.067,1.067,0,0,0,.348.058,1.13,1.13,0,0,0,.935-.508,1.173,1.173,0,0,0-.073-1.366l-3.434-4.125a7.123,7.123,0,0,1,.067-9.22l4.028-4.7a3.657,3.657,0,0,0,.483-3.977l-3.427-6.836A44.9,44.9,0,0,0-1603.475-165.468Zm58.268,20.29a3.563,3.563,0,0,0-1.805,1.83,3.608,3.608,0,0,0-.117,2.588l3.36,10.058a3.654,3.654,0,0,0,2.362,2.316h.012l10.436,2.854c.133-1.459.2-2.905.2-4.312a45.275,45.275,0,0,0-1.3-10.8,44.976,44.976,0,0,0-3.269-9.016Z" transform="translate(1916 2935)" fill="#492368"/>
  </g>
</svg>
