<svg xmlns="http://www.w3.org/2000/svg" xmlns:xlink="http://www.w3.org/1999/xlink" width="124" height="124" viewBox="0 0 124 124">
  <defs>
    <clipPath id="clip-path">
      <rect id="Rectangle_4118" data-name="Rectangle 4118" width="124" height="124" transform="translate(0 0)" fill="#fff"/>
    </clipPath>
  </defs>
  <g id="Groupe_10768" data-name="Groupe 10768" transform="translate(-78 -2854)" style="mix-blend-mode: multiply;isolation: isolate">
    <g id="Groupe_10550" data-name="Groupe 10550" transform="translate(-202.5 -78.898)">
      <path id="Union_31" data-name="Union 31" d="M-1340.3,3.586a2.849,2.849,0,0,1-1.1-2.978l1.8-7.556L-1345.5-12a2.855,2.855,0,0,1-.858-3.056,2.852,2.852,0,0,1,2.487-1.967l7.748-.62,2.964-7.128.014-.036a2.851,2.851,0,0,1,2.646-1.775,2.849,2.849,0,0,1,2.643,1.77l2.98,7.169,7.745.62a2.853,2.853,0,0,1,2.492,1.968A2.85,2.85,0,0,1-1315.5-12l-5.9,5.054,1.8,7.556a2.853,2.853,0,0,1-1.1,2.978,2.848,2.848,0,0,1-1.68.545,2.865,2.865,0,0,1-1.493-.42L-1330.5-.338l-6.631,4.049a2.851,2.851,0,0,1-1.49.42A2.838,2.838,0,0,1-1340.3,3.586Zm7.6-19.055a2.85,2.85,0,0,1-2.414,1.753l-5.706.457,4.348,3.725a2.846,2.846,0,0,1,.923,2.831l-1.329,5.571,4.885-2.984a2.865,2.865,0,0,1,1.491-.418,2.86,2.86,0,0,1,1.489.418l4.887,2.984-1.328-5.566s0,0,0-.005a2.851,2.851,0,0,1,.925-2.831l4.346-3.724-5.706-.457a2.848,2.848,0,0,1-2.413-1.753l-2.2-5.286Zm-84.6,19.055a2.849,2.849,0,0,1-1.1-2.978l1.8-7.556L-1422.5-12a2.855,2.855,0,0,1-.859-3.056,2.853,2.853,0,0,1,2.487-1.967l7.748-.62,2.965-7.128.014-.036a2.851,2.851,0,0,1,2.646-1.775,2.848,2.848,0,0,1,2.643,1.77l2.981,7.169,7.744.62a2.853,2.853,0,0,1,2.493,1.968A2.852,2.852,0,0,1-1392.5-12l-5.9,5.054,1.8,7.556a2.85,2.85,0,0,1-1.1,2.978,2.845,2.845,0,0,1-1.68.545,2.865,2.865,0,0,1-1.493-.42L-1407.5-.338l-6.63,4.049a2.854,2.854,0,0,1-1.491.42A2.84,2.84,0,0,1-1417.3,3.586Zm7.6-19.055a2.849,2.849,0,0,1-2.414,1.753l-5.705.457,4.347,3.725a2.845,2.845,0,0,1,.923,2.831l-1.329,5.571,4.885-2.984a2.859,2.859,0,0,1,1.49-.418,2.856,2.856,0,0,1,1.489.418l4.887,2.984-1.328-5.566s0,0,0-.005a2.849,2.849,0,0,1,.924-2.831l4.347-3.724-5.707-.457a2.849,2.849,0,0,1-2.413-1.753l-2.2-5.286Zm21.174,18.833a4.008,4.008,0,0,1-1.547-4.186l4.044-16.948-13.234-11.338a4.012,4.012,0,0,1-1.206-4.295,4.011,4.011,0,0,1,3.5-2.766l17.374-1.391,6.662-16.02c.007-.019.014-.038.023-.057a4,4,0,0,1,3.718-2.495,4,4,0,0,1,3.716,2.487l6.687,16.085,17.369,1.39a4.01,4.01,0,0,1,3.5,2.768,4.008,4.008,0,0,1-1.21,4.3l-13.232,11.336,4.044,16.945a4.008,4.008,0,0,1-1.547,4.186,4,4,0,0,1-2.362.767,4.014,4.014,0,0,1-2.1-.591l-14.87-9.078-14.871,9.083a4.019,4.019,0,0,1-2.1.589A3.992,3.992,0,0,1-1388.524,3.364Zm12.933-38.977a4.006,4.006,0,0,1-3.394,2.465l-16.6,1.33,12.65,10.84a4,4,0,0,1,1.3,3.98L-1385.507-.79l14.217-8.683a4.023,4.023,0,0,1,2.094-.589,4.023,4.023,0,0,1,2.093.588l14.218,8.681-3.865-16.2s0,0,0-.005a4.007,4.007,0,0,1,1.3-3.979l12.65-10.839-16.6-1.33a4.006,4.006,0,0,1-3.393-2.464l-6.4-15.383Z" transform="translate(1711.999 3018)" fill="#492368"/>
    </g>
  </g>
</svg>
